<?xml version="1.0" encoding="UTF-8"?>
<!-- Generator: Adobe Illustrator 23.0.0, SVG Export Plug-In . SVG Version: 6.00 Build 0)  -->
<svg version="1.1" id="Layer_1" xmlns="http://www.w3.org/2000/svg" xmlns:xlink="http://www.w3.org/1999/xlink" x="0px" y="0px" viewBox="0 0 1920 1080" style="enable-background:new 0 0 1920 1080;" xml:space="preserve">
<style type="text/css">
	.st0{fill:url(#SVGID_1_);}
	.st1{fill:none;}
	.st2{fill:none;stroke:#CCCCCC;stroke-linecap:round;stroke-linejoin:round;}
</style>
<title>bg_login</title>
<radialGradient id="SVGID_1_" cx="960" cy="540" r="778.8453" gradientUnits="userSpaceOnUse">
	<stop offset="0" style="stop-color:#0088CD"/>
	<stop offset="0.9927" style="stop-color:#157AB2"/>
</radialGradient>
<rect class="st0" width="1920" height="1080"/>
<rect x="147.9" y="4.2" class="st1" width="1640.3" height="1071.5"/>
<path class="st1" d="M533.6,614.2c0,56.7,45.4,102.6,101.5,102.6c27.1,0,53.1-11,72.1-30.4H689c-15.5,11.8-34.4,18.3-53.9,18.2  c-49.4,0-89.5-40.5-89.5-90.5c0-47.2,35.8-86,81.4-90.1v-12.2C574.7,516.1,533.6,560.3,533.6,614.2z"/>
<path class="st1" d="M920,224.8c-53.4,0-98.3,36.2-112.2,85.7h14.5c13.4-41.6,52.1-71.7,97.8-71.7s84.3,30.1,97.8,71.7h14.5  C1018.4,261,973.4,224.8,920,224.8z"/>
<path class="st1" d="M624.3,249.7c-33.6,0-60.8,27.5-60.8,61.5s27.2,61.5,60.8,61.5c0.9,0,1.8,0,2.7-0.1v-7.3  c-0.9,0-1.8,0.1-2.7,0.1c-29.6,0-53.6-24.3-53.6-54.2s24-54.2,53.6-54.2c29.4,0,53.2,23.9,53.6,53.5h7.2  C684.7,276.8,657.7,249.7,624.3,249.7z"/>
<path class="st2" d="M635.1,716.9c-56,0-101.5-46-101.5-102.6c0-53.9,41.1-98.2,93.4-102.3v-25.2c-7.9-0.9-15.5-13.5-18.6-24.2  c-14.1,2.5-27.7,7-40.5,13.4c3.8,11,5.6,27.1-2,31.6c-7.2,4.2-20.6-3.2-28.9-11.1c-10.9,9.3-20.5,20.1-28.4,32.1  c8.7,7.6,18.3,20.6,13.8,28.3c-4.1,7.3-19.4,7.7-30.6,5c-4.9,13.6-7.8,27.8-8.7,42.2c11.3,2.1,26,8.6,26,17.5c0,8.4-13,16.5-24,19.8  c2.5,14.2,6.9,28,13.2,41c10.9-3.9,26.8-5.7,31.2,2c4.1,7.3-3.1,20.8-11,29.3c9.2,11,19.8,20.7,31.7,28.8c7.5-8.8,20.4-18.5,28-14  c7.2,4.2,7.6,19.7,4.9,30.9c13.4,4.9,27.4,7.9,41.7,8.8c2.1-11.4,8.5-26.3,17.3-26.3c8.3,0,16.3,13.2,19.6,24.3  c14.1-2.5,27.7-7,40.5-13.4c-3.8-11-5.6-27.1,2-31.5c7.2-4.2,20.6,3.2,28.9,11.1c10.9-9.3,20.5-20.1,28.4-32.1  c-4.5-3.9-8.4-8.5-11.5-13.6h-42.9C688.2,705.9,662.2,716.9,635.1,716.9z"/>
<path class="st2" d="M635.1,698.1c-45.7,0-82.9-37.6-82.9-83.8c0-43.5,32.9-79.3,74.8-83.5v-6.7c-45.6,4.1-81.4,42.9-81.4,90.1  c0,50,40,90.5,89.5,90.5c19.5,0,38.4-6.4,53.9-18.2h-11.8C664.4,694.1,649.9,698.1,635.1,698.1z"/>
<path class="st2" d="M552.2,614.2c0,46.2,37.2,83.8,82.9,83.8c14.8,0,29.3-4,42-11.6h-38.8c-6.2,0-11.2-5-11.2-11.2V530.8  C585.1,534.9,552.2,570.8,552.2,614.2z"/>
<path class="st2" d="M624.3,372.7c-33.6,0-60.8-27.5-60.8-61.5s27.2-61.5,60.8-61.5c33.3,0,60.4,27.2,60.8,60.8h16.1  c-0.9-1-1.4-2.3-1.4-3.6c0-5,7.8-9.9,14.4-11.9c-1.5-8.5-4.2-16.8-7.9-24.5c-6.5,2.3-16.1,3.4-18.7-1.2c-2.5-4.4,1.9-12.5,6.6-17.5  c-5.5-6.6-11.9-12.4-19-17.3c-4.5,5.3-12.2,11.1-16.8,8.4c-4.3-2.5-4.5-11.8-3-18.5c-8-2.9-16.5-4.7-25-5.3  c-1.3,6.9-5.1,15.8-10.4,15.8c-5,0-9.8-7.9-11.7-14.6c-8.4,1.5-16.6,4.2-24.3,8c2.3,6.6,3.4,16.2-1.2,18.9  c-4.3,2.5-12.3-1.9-17.3-6.7c-6.5,5.6-12.3,12.1-17,19.2c5.2,4.5,10.9,12.4,8.3,17c-2.5,4.4-11.7,4.6-18.3,3  c-2.9,8.2-4.7,16.7-5.2,25.3c6.8,1.3,15.6,5.2,15.6,10.5c0,5-7.8,9.9-14.4,11.9c1.5,8.5,4.2,16.8,7.9,24.5  c6.5-2.3,16.1-3.4,18.7,1.2c2.5,4.4-1.9,12.5-6.6,17.5c5.5,6.6,11.9,12.4,19,17.2c4.5-5.3,12.2-11.1,16.8-8.4  c4.3,2.5,4.5,11.8,3,18.5c8,2.9,16.5,4.7,25,5.3c1.1-6.1,4.3-13.9,8.8-15.5v-15.2C626.1,372.7,625.2,372.7,624.3,372.7z"/>
<path class="st2" d="M624.3,361.4c-27.4,0-49.7-22.5-49.7-50.3s22.3-50.3,49.7-50.3c27.2,0,49.3,22.2,49.7,49.5h3.9  c-0.4-29.6-24.2-53.5-53.6-53.5c-29.6,0-53.6,24.3-53.6,54.2s24,54.2,53.6,54.2c0.9,0,1.8,0,2.7-0.1v-4  C626.1,361.4,625.2,361.4,624.3,361.4z"/>
<path class="st2" d="M624.3,260.9c-27.4,0-49.7,22.5-49.7,50.3s22.3,50.3,49.7,50.3c0.9,0,1.8,0,2.7-0.1v-39.7  c0-6.2,5-11.2,11.2-11.2H674C673.6,283.1,651.5,260.9,624.3,260.9z"/>
<path class="st2" d="M920,224.8c53.3,0,98.3,36.2,112.2,85.7h60c-2.9-15.9-7.9-31.3-15-45.8c-12.5,4.5-30.8,6.5-35.9-2.3  c-4.8-8.3,3.6-23.9,12.6-33.6c-10.5-12.7-22.8-23.8-36.4-33.1c-8.6,10.2-23.4,21.2-32.2,16.1c-8.3-4.8-8.7-22.6-5.7-35.6  c-15.4-5.6-31.5-9.1-47.9-10.2c-2.4,13.1-9.8,30.2-19.9,30.2c-9.5,0-18.7-15.1-22.5-27.9c-16.2,2.9-31.8,8.1-46.5,15.4  c4.4,12.6,6.5,31.1-2.3,36.3c-8.2,4.8-23.7-3.6-33.3-12.8c-12.6,10.7-23.6,23.1-32.7,36.9c10,8.7,21,23.7,15.9,32.6  c-4.8,8.4-22.3,8.8-35.2,5.7c-3.3,9.1-5.8,18.5-7.5,28.1h60C821.7,261,866.7,224.8,920,224.8z"/>
<path class="st2" d="M920,246.4c-41.4,0-76.6,26.8-89.8,64.1h179.6C996.7,273.1,961.4,246.4,920,246.4z"/>
<path class="st2" d="M920,246.4c41.4,0,76.6,26.8,89.8,64.1h8c-13.4-41.6-52.1-71.7-97.8-71.7s-84.3,30.1-97.8,71.7h8  C843.4,273.1,878.7,246.4,920,246.4z"/>
</svg>